<svg xmlns="http://www.w3.org/2000/svg"  viewBox="0 0 50 50" width="50px" height="50px"><path d="M 14 3.9902344 C 8.486 3.9902344 4 8.4762344 4 13.990234 L 4 35.990234 C 4 41.504234 8.486 45.990234 14 45.990234 L 36 45.990234 C 41.514 45.990234 46 41.504234 46 35.990234 L 46 13.990234 C 46 8.4762344 41.514 3.9902344 36 3.9902344 L 14 3.9902344 z M 24.990234 10.765625 C 25.056234 10.765625 25.273859 10.785625 25.380859 11.015625 L 36.597656 35.142578 C 36.702656 35.370578 36.579062 35.548656 36.539062 35.597656 C 36.498062 35.646656 36.347516 35.804234 36.103516 35.740234 L 29.285156 34.013672 C 29.156677 33.981004 29.029486 33.97958 28.902344 33.982422 L 28.9375 33.927734 L 24.976562 16 L 24.976562 39.355469 C 24.888923 39.351186 24.725126 39.322959 24.625 39.132812 L 22.279297 34.664062 C 22.027297 34.183063 21.540531 33.898438 21.019531 33.898438 C 20.895531 33.898438 20.770531 33.916219 20.644531 33.949219 L 13.896484 35.75 C 13.658484 35.813 13.511031 35.674328 13.457031 35.611328 C 13.416031 35.562328 13.288531 35.384297 13.394531 35.154297 L 24.601562 11.013672 C 24.708562 10.784672 24.926234 10.765625 24.990234 10.765625 z"/></svg>